<?xml version="1.0" encoding="UTF-8"?>
<svg version="1.1" xmlns="http://www.w3.org/2000/svg" width="36" height="36">
<path d="M0 0 C0.93328125 -0.00128906 1.8665625 -0.00257812 2.828125 -0.00390625 C4.28605469 0.00189453 4.28605469 0.00189453 5.7734375 0.0078125 C6.753125 0.00394531 7.7328125 0.00007813 8.7421875 -0.00390625 C10.13824219 -0.00197266 10.13824219 -0.00197266 11.5625 0 C12.4179541 0.00112793 13.2734082 0.00225586 14.15478516 0.00341797 C16.1484375 0.1328125 16.1484375 0.1328125 17.1484375 1.1328125 C17.1278125 2.2259375 17.1071875 3.3190625 17.0859375 4.4453125 C16.84532605 7.9279339 16.84532605 7.9279339 18.1328125 9.828125 C19.69823628 13.38043281 19.47713067 16.85753053 19.4609375 20.6953125 C19.47705078 21.46294922 19.49316406 22.23058594 19.50976562 23.02148438 C19.51468964 28.66932964 19.51468964 28.66932964 17.87841797 30.73999023 C11.57776973 35.81269673 4.69024212 36.77401348 -3.1640625 36.6328125 C-4.04384766 36.64828125 -4.92363281 36.66375 -5.83007812 36.6796875 C-9.5569785 36.65704877 -12.13123332 36.52959473 -15.42578125 34.71484375 C-17.65498227 30.67785232 -17.43049239 26.8554925 -17.3515625 22.3203125 C-17.36703125 21.44310547 -17.3825 20.56589844 -17.3984375 19.66210938 C-17.36238016 13.63602576 -16.33844792 10.06563572 -12.8515625 5.1328125 C-8.68360569 1.26982814 -5.62500157 0.00739715 0 0 Z " fill="#FDC84B" transform="translate(16.8515625,-0.1328125)"/>
<path d="M0 0 C0.66 0.33 1.32 0.66 2 1 C3.62359433 1.07071404 5.25001132 1.08419866 6.875 1.0625 C8.17050781 1.04896484 8.17050781 1.04896484 9.4921875 1.03515625 C10.31976563 1.02355469 11.14734375 1.01195313 12 1 C13.32 1 14.64 1 16 1 C17.54571278 3.31856917 18.79618552 5.50638429 20 8 C13.93507518 12.41085441 8.41323579 12.93207351 1 12 C0.01 11.34 -0.98 10.68 -2 10 C-1.34 9.01 -0.68 8.02 0 7 C0.07905064 4.66800612 0.08798769 2.33167378 0 0 Z " fill="#FBC348" transform="translate(11,24)"/>
<path d="M0 0 C1.37478516 0.01740234 1.37478516 0.01740234 2.77734375 0.03515625 C3.69644531 0.04417969 4.61554687 0.05320312 5.5625 0.0625 C6.27277344 0.07410156 6.98304687 0.08570312 7.71484375 0.09765625 C8.46484375 2.78515625 8.46484375 2.78515625 8.71484375 6.09765625 C6.77734375 8.97265625 6.77734375 8.97265625 4.71484375 11.09765625 C2.08828442 10.7427158 0.13516114 10.37303661 -2.09765625 8.91015625 C-3.82271004 6.27717941 -3.55223123 4.16901851 -3.28515625 1.09765625 C-2.28515625 0.09765625 -2.28515625 0.09765625 0 0 Z " fill="#DE3244" transform="translate(3.28515625,24.90234375)"/>
<path d="M0 0 C0.8146875 0.00257812 1.629375 0.00515625 2.46875 0.0078125 C3.2834375 0.00523438 4.098125 0.00265625 4.9375 0 C6.96875 0.1328125 6.96875 0.1328125 7.96875 1.1328125 C8.34375 3.4453125 8.34375 3.4453125 7.96875 6.1328125 C5.46875 8.4453125 5.46875 8.4453125 2.96875 10.1328125 C0.50074953 8.98107895 -1.07908565 8.08497685 -3.03125 6.1328125 C-3.21875 3.5703125 -3.21875 3.5703125 -3.03125 1.1328125 C-2.03125 0.1328125 -2.03125 0.1328125 0 0 Z " fill="#DD3043" transform="translate(26.03125,-0.1328125)"/>
<path d="M0 0 C2.64 0 5.28 0 8 0 C8.36923077 4.55384615 8.36923077 4.55384615 6.5 6.8125 C6.005 7.204375 5.51 7.59625 5 8 C3.0625 7.375 3.0625 7.375 1 6 C0.25 2.875 0.25 2.875 0 0 Z " fill="#DE3243" transform="translate(28,24)"/>
<path d="M0 0 C0.556875 0.16242187 1.11375 0.32484375 1.6875 0.4921875 C4.19228372 1.04222447 6.437481 1.13281256 9 1.125 C9.845625 1.12757812 10.69125 1.13015625 11.5625 1.1328125 C13.84698944 1.00833711 15.80991574 0.63877457 18 0 C17 3 17 3 14 5 C11.66015625 5.30078125 11.66015625 5.30078125 9.0625 5.3125 C8.20785156 5.32925781 7.35320313 5.34601562 6.47265625 5.36328125 C3.52442718 4.93012911 2.14163177 4.04225211 0 2 C0 1.34 0 0.68 0 0 Z " fill="#725006" transform="translate(9,21)"/>
<path d="M0 0 C-0.33 0.99 -0.66 1.98 -1 3 C-3.5625 4.1875 -3.5625 4.1875 -6 5 C-6 4.34 -6 3.68 -6 3 C-7.98 3 -9.96 3 -12 3 C-12 2.67 -12 2.34 -12 2 C-10.37548581 1.66430703 -8.75037083 1.3315204 -7.125 1 C-6.22007813 0.814375 -5.31515625 0.62875 -4.3828125 0.4375 C-2 0 -2 0 0 0 Z " fill="#876211" transform="translate(27,21)"/>
<path d="M0 0 C1.65 0.33 3.3 0.66 5 1 C5.33 2.32 5.66 3.64 6 5 C5.34 5 4.68 5 4 5 C3.67 4.34 3.34 3.68 3 3 C2.34 3 1.68 3 1 3 C0.67 3.66 0.34 4.32 0 5 C-0.66 5 -1.32 5 -2 5 C-1.34 3.35 -0.68 1.7 0 0 Z " fill="#7A570A" transform="translate(21,12)"/>
<path d="M0 0 C1.65 0.33 3.3 0.66 5 1 C5.33 2.32 5.66 3.64 6 5 C5.34 5 4.68 5 4 5 C3.67 4.34 3.34 3.68 3 3 C2.34 3 1.68 3 1 3 C0.67 3.66 0.34 4.32 0 5 C-0.66 5 -1.32 5 -2 5 C-1.34 3.35 -0.68 1.7 0 0 Z " fill="#7A560A" transform="translate(11,12)"/>
</svg>
