<?xml version="1.0" encoding="UTF-8"?>
<svg version="1.1" xmlns="http://www.w3.org/2000/svg" width="36" height="36">
<path d="M0 0 C4.8404001 2.60960701 8.06650639 6.09014417 9.796875 11.28125 C10.46163179 18.73524418 10.44121145 24.25616487 5.796875 30.28125 C0.39692227 35.28608423 -4.05234248 35.63143872 -11.1875 35.5625 C-16.73027207 35.04555753 -19.78938645 32.80659949 -23.578125 28.71875 C-27.13749657 23.37969265 -26.78151279 17.4828524 -26.203125 11.28125 C-24.60392 6.37933903 -21.45575292 3.11633528 -17.203125 0.28125 C-11.84906913 -1.50343529 -5.40672306 -1.76389547 0 0 Z " fill="#FAC74B" transform="translate(26.203125,0.71875)"/>
<path d="M0 0 C3.78430911 2.04023622 6.90996565 4.42166268 8.796875 8.28125 C8.21057603 11.67714009 7.30194767 15.77617733 4.796875 18.28125 C3.27759462 18.35304964 1.75520018 18.36517007 0.234375 18.34375 C-0.59191406 18.33472656 -1.41820313 18.32570313 -2.26953125 18.31640625 C-3.22666016 18.29900391 -3.22666016 18.29900391 -4.203125 18.28125 C-5.6637535 15.63386084 -6.203125 14.38676666 -6.203125 11.28125 C-7.523125 11.28125 -8.843125 11.28125 -10.203125 11.28125 C-10.3475 12.250625 -10.491875 13.22 -10.640625 14.21875 C-11.203125 17.28125 -11.203125 17.28125 -12.203125 18.28125 C-13.72240538 18.35304964 -15.24479982 18.36517007 -16.765625 18.34375 C-17.59191406 18.33472656 -18.41820312 18.32570313 -19.26953125 18.31640625 C-20.22666016 18.29900391 -20.22666016 18.29900391 -21.203125 18.28125 C-25.35471577 11.3676505 -25.35471577 11.3676505 -24.828125 7.59375 C-19.03546569 -0.64964978 -9.58935975 -3.12844361 0 0 Z " fill="#303433" transform="translate(26.203125,0.71875)"/>
<path d="M0 0 C3.92304534 2.04064991 5.67620026 4.50991841 7.77734375 8.26953125 C-13.75457114 9.65250997 -13.75457114 9.65250997 -24.22265625 8.26953125 C-19.06148304 -0.96544633 -10.0076997 -3.28899797 0 0 Z " fill="#FCCA4C" transform="translate(26.22265625,0.73046875)"/>
<path d="M0 0 C0.556875 0.16242187 1.11375 0.32484375 1.6875 0.4921875 C4.19228372 1.04222447 6.437481 1.13281256 9 1.125 C9.845625 1.12757812 10.69125 1.13015625 11.5625 1.1328125 C13.84698944 1.00833711 15.80991574 0.63877457 18 0 C17 3 17 3 15.21875 4.16796875 C11.50809887 5.55946292 7.90362747 5.47989549 4 5 C1.4375 3.625 1.4375 3.625 0 2 C0 1.34 0 0.68 0 0 Z " fill="#7A560A" transform="translate(9,24)"/>
</svg>
