<?xml version="1.0" encoding="UTF-8"?>
<svg version="1.1" xmlns="http://www.w3.org/2000/svg" width="36" height="36">
<path d="M0 0 C2.75 0.375 2.75 0.375 5.625 2.375 C7.9025789 5.5904055 8.02402257 6.02782104 7.5625 9.6875 C7.294375 10.904375 7.02625 12.12125 6.75 13.375 C5.615625 13.354375 4.48125 13.33375 3.3125 13.3125 C-0.06575674 12.95922523 -0.06575674 12.95922523 -1.25 14.375 C-1.29063832 16.04117115 -1.292721 17.70888095 -1.25 19.375 C-0.46625 19.045 0.3175 18.715 1.125 18.375 C6.76798289 16.81831506 12.24037117 16.38160525 17.75 18.5625 C20.18172844 20.7662539 21.00612582 22.17634101 21.75 25.375 C21.66787663 29.39904533 21.28708232 30.85205143 18.375 33.6875 C14.01120291 36.49279813 10.21707635 36.56772403 5.1875 36.5625 C4.47456787 36.56241943 3.76163574 36.56233887 3.02709961 36.56225586 C-11.21568463 36.40931537 -11.21568463 36.40931537 -14.25 33.375 C-14.34464156 20.99588447 -11.401157 10.75510067 -3.25 1.375 C-2.25 0.375 -2.25 0.375 0 0 Z " fill="#FEDB5C" transform="translate(14.25,-0.375)"/>
<path d="M0 0 C0.66 0 1.32 0 2 0 C0.60478153 3.37177797 -0.76282761 5.25017709 -4 7 C-8.25812212 7.38018947 -11.35187527 7.33479983 -15 5 C-14.34 4.34 -13.68 3.68 -13 3 C-12.34 3.33 -11.68 3.66 -11 4 C-7.58399407 4.41692853 -7.58399407 4.41692853 -4 4 C-1.68622853 2.10415891 -1.68622853 2.10415891 0 0 Z " fill="#F19F48" transform="translate(29,25)"/>
</svg>
