<?xml version="1.0" encoding="UTF-8"?>
<svg version="1.1" xmlns="http://www.w3.org/2000/svg" width="36" height="36">
<path d="M0 0 C3.5625 1.8125 3.5625 1.8125 6 4 C6.8971875 4.7734375 6.8971875 4.7734375 7.8125 5.5625 C10.63993216 8.98518104 10.25201971 13.2321038 10.3125 17.4375 C10.36857422 19.41556641 10.36857422 19.41556641 10.42578125 21.43359375 C10 25 10 25 8.10546875 27.47265625 C6 29 6 29 4 29 C4 31.31 4 33.62 4 36 C-2.6 36 -9.2 36 -16 36 C-16 33.69 -16 31.38 -16 29 C-16.61875 28.731875 -17.2375 28.46375 -17.875 28.1875 C-20 27 -20 27 -22 24 C-22.30078125 20.8203125 -22.30078125 20.8203125 -22.3125 17.125 C-22.32925781 15.91070312 -22.34601562 14.69640625 -22.36328125 13.4453125 C-21.83922317 8.47521332 -20.14317884 6.00376679 -16.4375 2.75 C-11.29818888 -0.93976183 -6.17841416 -0.59765052 0 0 Z " fill="#CAD4DB" transform="translate(24,0)"/>
<path d="M0 0 C1.32278481 5.41139241 1.32278481 5.41139241 -0.0625 7.9375 C-2.91093248 9.49954362 -4.93504903 8.74921024 -8 8 C-9.32278481 2.58860759 -9.32278481 2.58860759 -7.9375 0.0625 C-5.08906752 -1.49954362 -3.06495097 -0.74921024 0 0 Z " fill="#31383C" transform="translate(29,10)"/>
<path d="M0 0 C1.32278481 5.41139241 1.32278481 5.41139241 -0.0625 7.9375 C-2.91093248 9.49954362 -4.93504903 8.74921024 -8 8 C-9.32278481 2.58860759 -9.32278481 2.58860759 -7.9375 0.0625 C-5.08906752 -1.49954362 -3.06495097 -0.74921024 0 0 Z " fill="#31383C" transform="translate(15,10)"/>
<path d="M0 0 C0 0.99 0 1.98 0 3 C-1.98 3 -3.96 3 -6 3 C-6 2.01 -6 1.02 -6 0 C-3.50907189 -1.24546405 -2.58919267 -0.7767578 0 0 Z " fill="#434A4E" transform="translate(21,23)"/>
</svg>
