<?xml version="1.0" encoding="UTF-8"?>
<svg version="1.1" xmlns="http://www.w3.org/2000/svg" width="36" height="36">
<path d="M0 0 C4.8404001 2.60960701 8.06650639 6.09014417 9.796875 11.28125 C10.46572892 18.78118573 10.27990533 24.1170833 5.796875 30.28125 C7.116875 30.94125 8.436875 31.60125 9.796875 32.28125 C9.796875 32.94125 9.796875 33.60125 9.796875 34.28125 C6.35556131 35.42835456 3.67527511 35.4107135 0.046875 35.4140625 C-0.93490723 35.41549759 -0.93490723 35.41549759 -1.93652344 35.41696167 C-3.31836035 35.41764122 -4.70020049 35.41580261 -6.08203125 35.41162109 C-8.19538554 35.4062696 -10.30852731 35.41157361 -12.421875 35.41796875 C-13.76562547 35.41730793 -15.1093758 35.41602668 -16.453125 35.4140625 C-17.67515625 35.41293457 -18.8971875 35.41180664 -20.15625 35.41064453 C-23.203125 35.28125 -23.203125 35.28125 -26.203125 34.28125 C-26.203125 33.62125 -26.203125 32.96125 -26.203125 32.28125 C-24.883125 31.62125 -23.563125 30.96125 -22.203125 30.28125 C-22.863125 29.37375 -23.523125 28.46625 -24.203125 27.53125 C-27.13577614 22.37816299 -26.97757851 17.03880335 -26.203125 11.28125 C-24.56700899 6.38165125 -21.47043481 3.12612321 -17.203125 0.28125 C-11.84906913 -1.50343529 -5.40672306 -1.76389547 0 0 Z " fill="#F9C74A" transform="translate(26.203125,0.71875)"/>
<path d="M0 0 C1.32 0 2.64 0 4 0 C4 4.95 4 9.9 4 15 C7.96 15 11.92 15 16 15 C16 10.05 16 5.1 16 0 C17.32 0 18.64 0 20 0 C20 4.95 20 9.9 20 15 C21.98 15 23.96 15 26 15 C26.66 15.33 27.32 15.66 28 16 C28 16.66 28 17.32 28 18 C24.55868631 19.14710456 21.87840011 19.1294635 18.25 19.1328125 C17.26821777 19.13424759 17.26821777 19.13424759 16.26660156 19.13571167 C14.88476465 19.13639122 13.50292451 19.13455261 12.12109375 19.13037109 C10.00773946 19.1250196 7.89459769 19.13032361 5.78125 19.13671875 C4.43749953 19.13605793 3.0937492 19.13477668 1.75 19.1328125 C0.52796875 19.13168457 -0.6940625 19.13055664 -1.953125 19.12939453 C-5 19 -5 19 -8 18 C-8 17.34 -8 16.68 -8 16 C-6 15 -6 15 0 15 C0 10.05 0 5.1 0 0 Z " fill="#5DACE9" transform="translate(8,17)"/>
<path d="M0 0 C3.875 1.875 3.875 1.875 5 3 C5.125 5.5 5.125 5.5 5 8 C4 9 4 9 1 9.125 C-2 9 -2 9 -3 8 C-3.25 5.625 -3.25 5.625 -3 3 C-1.5 1.1875 -1.5 1.1875 0 0 Z " fill="#755108" transform="translate(17,21)"/>
<path d="M0 0 C3.11198065 1.49836105 6.0534615 3.19933758 9 5 C8.67 6.65 8.34 8.3 8 10 C4.7 10 1.4 10 -2 10 C-2 9.34 -2 8.68 -2 8 C0.31 7.34 2.62 6.68 5 6 C4.175 5.38125 3.35 4.7625 2.5 4.125 C1.675 3.42375 0.85 2.7225 0 2 C0 1.34 0 0.68 0 0 Z " fill="#7E5A0C" transform="translate(22,8)"/>
<path d="M0 0 C0.66 0 1.32 0 2 0 C0.549046 3.82524236 -1.38181932 5.19090966 -5 7 C-5.66 7 -6.32 7 -7 7 C-7 6.34 -7 5.68 -7 5 C-5.03277992 3.61876037 -3.03131672 2.28511874 -1 1 C-0.67 0.67 -0.34 0.34 0 0 Z " fill="#795609" transform="translate(12,8)"/>
<path d="M0 0 C1.65 0.33 3.3 0.66 5 1 C4.67 1.99 4.34 2.98 4 4 C2.35 3.67 0.7 3.34 -1 3 C-0.67 2.01 -0.34 1.02 0 0 Z " fill="#D95763" transform="translate(16,25)"/>
</svg>
