<?xml version="1.0" encoding="UTF-8"?>
<svg version="1.1" xmlns="http://www.w3.org/2000/svg" width="36" height="36">
<path d="M0 0 C3.95892741 0.2249742 3.95892741 0.2249742 7.3125 -1.1875 C11.9497762 -2.20927272 13.92861741 -1.3150999 18 1 C20.88271805 5.32407708 20.7973127 8.92880391 20 14 C17.07841796 21.48724828 11.94499697 27.02424087 5 31 C2 31.875 2 31.875 -1 31 C-7.96634884 27.01201769 -13.03645636 21.4868471 -16 14 C-16.7055665 10.48239308 -16.83749694 7.49887609 -16 4 C-13.88373654 1.11953029 -12.2926342 -0.3536829 -9.125 -1.9375 C-5.89047465 -2.0326331 -3.07720587 -0.93415178 0 0 Z " fill="#DD2D44" transform="translate(16,3)"/>
</svg>
