<?xml version="1.0" encoding="UTF-8"?>
<svg version="1.1" xmlns="http://www.w3.org/2000/svg" width="36" height="36">
<path d="M0 0 C2.375 -0.125 2.375 -0.125 5 0 C7 2 7 2 7.1953125 4.3828125 C7.17210938 5.28773438 7.14890625 6.19265625 7.125 7.125 C7.10695313 8.03507813 7.08890625 8.94515625 7.0703125 9.8828125 C7.04710938 10.58148438 7.02390625 11.28015625 7 12 C7.80824219 11.96519531 8.61648437 11.93039062 9.44921875 11.89453125 C10.51785156 11.86746094 11.58648438 11.84039062 12.6875 11.8125 C13.74324219 11.77769531 14.79898437 11.74289062 15.88671875 11.70703125 C19.44163014 12.04155867 21.25806893 12.72007929 24 15 C25.62063693 21.17655335 23.67389243 28.9519945 22 35 C19.48749101 37.51250899 12.6265778 36.18554596 9.25 36.1875 C7.60257813 36.20586914 7.60257813 36.20586914 5.921875 36.22460938 C4.8596875 36.22654297 3.7975 36.22847656 2.703125 36.23046875 C1.73020508 36.23457764 0.75728516 36.23868652 -0.24511719 36.24291992 C-3.20681983 35.98176305 -5.34959381 35.3342959 -8 34 C-9.41880263 31.16239474 -9.1320472 28.72317025 -9.125 25.5625 C-9.12757812 24.40878906 -9.13015625 23.25507813 -9.1328125 22.06640625 C-9 19 -9 19 -8 16 C-7.030625 15.525625 -6.06125 15.05125 -5.0625 14.5625 C-0.38222128 10.64634842 -0.53402867 5.85590056 0 0 Z " fill="#FED95D" transform="translate(11,0)"/>
<path d="M0 0 C2.05078125 0.03255208 4.1015625 0.06510417 6.15234375 0.09765625 C6.15234375 0.42765625 6.15234375 0.75765625 6.15234375 1.09765625 C5.01796875 1.22140625 3.88359375 1.34515625 2.71484375 1.47265625 C0.95140625 1.78203125 0.95140625 1.78203125 -0.84765625 2.09765625 C-1.17765625 2.75765625 -1.50765625 3.41765625 -1.84765625 4.09765625 C2.77234375 3.76765625 7.39234375 3.43765625 12.15234375 3.09765625 C12.15234375 7.76873151 12.1370526 11.09721279 11.21484375 15.47265625 C11.04082031 16.32601563 10.86679687 17.179375 10.6875 18.05859375 C10.15234375 20.09765625 10.15234375 20.09765625 9.15234375 21.09765625 C7.46625409 21.16971136 5.77733716 21.18151693 4.08984375 21.16015625 C3.17074219 21.15113281 2.25164063 21.14210938 1.3046875 21.1328125 C0.59441406 21.12121094 -0.11585937 21.10960938 -0.84765625 21.09765625 C-2.6313844 16.50790515 -3.09221959 12.69779148 -3.03515625 7.78515625 C-3.02871094 6.55152344 -3.02226562 5.31789063 -3.015625 4.046875 C-2.79354997 0.14765063 -2.79354997 0.14765063 0 0 Z " fill="#F1A24B" transform="translate(22.84765625,14.90234375)"/>
<path d="M0 0 C2.05078125 0.03255208 4.1015625 0.06510417 6.15234375 0.09765625 C6.15234375 0.42765625 6.15234375 0.75765625 6.15234375 1.09765625 C5.01796875 1.22140625 3.88359375 1.34515625 2.71484375 1.47265625 C0.95140625 1.78203125 0.95140625 1.78203125 -0.84765625 2.09765625 C-1.17765625 2.75765625 -1.50765625 3.41765625 -1.84765625 4.09765625 C2.77234375 3.76765625 7.39234375 3.43765625 12.15234375 3.09765625 C12.15234375 4.08765625 12.15234375 5.07765625 12.15234375 6.09765625 C7.86234375 6.09765625 3.57234375 6.09765625 -0.84765625 6.09765625 C-1.17765625 7.08765625 -1.50765625 8.07765625 -1.84765625 9.09765625 C-3.21389299 6.36518277 -2.97608225 4.11566723 -2.84765625 1.09765625 C-1.84765625 0.09765625 -1.84765625 0.09765625 0 0 Z " fill="#F1A24B" transform="translate(22.84765625,14.90234375)"/>
<path d="M0 0 C4.29 0 8.58 0 13 0 C12.67 0.99 12.34 1.98 12 3 C8.04 3 4.08 3 0 3 C0 2.01 0 1.02 0 0 Z " fill="#FDD55C" transform="translate(22,21)"/>
<path d="M0 0 C1.23556641 0.01740234 1.23556641 0.01740234 2.49609375 0.03515625 C3.32238281 0.04417969 4.14867187 0.05320312 5 0.0625 C5.63808594 0.07410156 6.27617187 0.08570312 6.93359375 0.09765625 C6.93359375 0.42765625 6.93359375 0.75765625 6.93359375 1.09765625 C3.85742188 1.390625 3.85742188 1.390625 0.78125 1.68359375 C0.17152344 1.82023437 -0.43820313 1.956875 -1.06640625 2.09765625 C-1.39640625 2.75765625 -1.72640625 3.41765625 -2.06640625 4.09765625 C1.23359375 3.76765625 4.53359375 3.43765625 7.93359375 3.09765625 C7.93359375 4.08765625 7.93359375 5.07765625 7.93359375 6.09765625 C4.63359375 6.09765625 1.33359375 6.09765625 -2.06640625 6.09765625 C-2.44859392 4.44150968 -2.78035727 2.77308601 -3.06640625 1.09765625 C-2.06640625 0.09765625 -2.06640625 0.09765625 0 0 Z " fill="#EF9C49" transform="translate(24.06640625,29.90234375)"/>
<path d="M0 0 C3.96 0 7.92 0 12 0 C11.67 0.99 11.34 1.98 11 3 C7.37 3 3.74 3 0 3 C0 2.01 0 1.02 0 0 Z " fill="#FDD65C" transform="translate(22,26)"/>
<path d="M0 0 C3.3 0 6.6 0 10 0 C9.67 0.99 9.34 1.98 9 3 C5.7 3 2.4 3 -1 3 C-0.67 2.01 -0.34 1.02 0 0 Z " fill="#FDD65C" transform="translate(23,31)"/>
</svg>
