<?xml version="1.0" encoding="UTF-8"?>
<svg version="1.1" xmlns="http://www.w3.org/2000/svg" width="36" height="36">
<path d="M0 0 C11.88 0 23.76 0 36 0 C36 11.88 36 23.76 36 36 C24.12 36 12.24 36 0 36 C0 24.12 0 12.24 0 0 Z " fill="#77B256" transform="translate(0,0)"/>
<path d="M0 0 C1.32 0.33 2.64 0.66 4 1 C3.13736938 6.48305476 0.67502029 10.16630135 -2.3125 14.75 C-2.79912109 15.52988281 -3.28574219 16.30976563 -3.78710938 17.11328125 C-4.26599609 17.85449219 -4.74488281 18.59570312 -5.23828125 19.359375 C-5.67180908 20.03452148 -6.10533691 20.70966797 -6.55200195 21.40527344 C-8.31206362 23.34368564 -9.41430463 23.74732094 -12 24 C-14.140625 22.70703125 -14.140625 22.70703125 -16.25 20.8125 C-16.95640625 20.20019531 -17.6628125 19.58789062 -18.390625 18.95703125 C-20 17 -20 17 -20 13 C-16.04179141 13.56545837 -13.3340947 14.80902348 -10 17 C-9.75507813 16.30519531 -9.51015625 15.61039063 -9.2578125 14.89453125 C-7.79749975 11.53399786 -5.93718222 8.71425133 -3.875 5.6875 C-3.15054687 4.61886719 -2.42609375 3.55023438 -1.6796875 2.44921875 C-1.12539063 1.64097656 -0.57109375 0.83273438 0 0 Z " fill="#F7FAF6" transform="translate(26,6)"/>
</svg>
