<?xml version="1.0" encoding="UTF-8"?>
<svg version="1.1" xmlns="http://www.w3.org/2000/svg" width="36" height="36">
<path d="M0 0 C0.83724609 -0.01224609 1.67449219 -0.02449219 2.53710938 -0.03710938 C3.73883789 -0.04000977 3.73883789 -0.04000977 4.96484375 -0.04296875 C5.70210693 -0.04707764 6.43937012 -0.05118652 7.19897461 -0.05541992 C9.0625 0.1875 9.0625 0.1875 11.0625 2.1875 C13.05071313 2.58514263 15.05194339 2.92525349 17.0625 3.1875 C18.53510168 10.91865881 20.21707374 21.15508843 16.375 28.3125 C13.31434456 32.11763919 10.72460766 34.63346411 6.0625 36.1875 C-1.39149418 36.85225679 -6.91241487 36.83183645 -12.9375 32.1875 C-18.13980778 26.57448371 -18.14426167 21.96234896 -18.1875 14.6875 C-18.2184375 13.38619141 -18.2184375 13.38619141 -18.25 12.05859375 C-18.25515625 11.22457031 -18.2603125 10.39054688 -18.265625 9.53125 C-18.27964355 8.38946289 -18.27964355 8.38946289 -18.29394531 7.22460938 C-17.84077898 4.63473277 -16.99687425 3.77577556 -14.9375 2.1875 C-12.3125 1.5625 -12.3125 1.5625 -9.9375 1.1875 C-7.78017167 -0.96982833 -2.98951247 0.00229081 0 0 Z " fill="#FDC84C" transform="translate(17.9375,-0.1875)"/>
<path d="M0 0 C0.66 0.66 1.32 1.32 2 2 C3.98821313 2.39764263 5.98944339 2.73775349 8 3 C8.8125 6.25 8.8125 6.25 9 10 C6.8125 12.3125 6.8125 12.3125 4 14 C3.34 14.433125 2.68 14.86625 2 15.3125 C-0.85950813 16.29545592 -2.21520205 16.21388629 -5 15 C-7.19053633 11.07214176 -8.75418739 7.52512433 -8 3 C-5.84871852 -0.2835349 -3.77529378 -0.48401202 0 0 Z " fill="#DD3144" transform="translate(27,0)"/>
<path d="M0 0 C2.625 0.25 2.625 0.25 4.5 1.25 C6.34335123 4.52706885 5.53909224 7.76967845 4.625 11.25 C3.0625 14.25 3.0625 14.25 1.625 16.25 C-3.63652256 15.74890261 -7.58464173 14.04035827 -11.375 10.25 C-11.08769945 7.91055264 -10.75563221 5.5760857 -10.375 3.25 C-9.240625 2.940625 -8.10625 2.63125 -6.9375 2.3125 C-4.0052455 1.43796796 -2.82287048 0.29714426 0 0 Z " fill="#DD3144" transform="translate(11.375,-0.25)"/>
<path d="M0 0 C5.94 0 11.88 0 18 0 C16.71428571 6.42857143 16.71428571 6.42857143 13 9 C9.8138904 9.45515851 8.01768349 9.69914647 5 9 C2 6.75 2 6.75 0 4 C0 2.68 0 1.36 0 0 Z " fill="#6D4B03" transform="translate(9,21)"/>
</svg>
