<?xml version="1.0" encoding="UTF-8"?>
<svg version="1.1" xmlns="http://www.w3.org/2000/svg" width="36" height="36">
<path d="M0 0 C2.05078125 0.03255208 4.1015625 0.06510417 6.15234375 0.09765625 C7.75188489 5.23903849 8.75760664 10.32415832 9.58984375 15.64453125 C10.0539727 18.33436466 10.0539727 18.33436466 12.15234375 21.09765625 C14.13957643 21.80146782 16.14012328 22.46883735 18.15234375 23.09765625 C20.15234375 25.09765625 20.15234375 25.09765625 20.34765625 27.69921875 C20.28255208 30.49869792 20.21744792 33.29817708 20.15234375 36.09765625 C15.86234375 36.09765625 11.57234375 36.09765625 7.15234375 36.09765625 C6.49234375 34.44765625 5.83234375 32.79765625 5.15234375 31.09765625 C3.1349917 29.75355363 3.1349917 29.75355363 1.15234375 29.09765625 C-1.61156362 31.50105397 -1.88831544 32.26029303 -2.84765625 36.09765625 C-7.13765625 36.09765625 -11.42765625 36.09765625 -15.84765625 36.09765625 C-16.21802416 25.60389878 -16.21802416 25.60389878 -14.52734375 23.29296875 C-12.84765625 22.09765625 -12.84765625 22.09765625 -9.78515625 21.28515625 C-8.81578125 20.89328125 -7.84640625 20.50140625 -6.84765625 20.09765625 C-5.08547954 15.92018839 -4.39357914 11.758854 -3.78515625 7.28515625 C-2.8094085 0.14848882 -2.8094085 0.14848882 0 0 Z " fill="#FDDB5D" transform="translate(15.84765625,-0.09765625)"/>
<path d="M0 0 C4.47971204 -0.3632199 4.47971204 -0.3632199 6.65625 1.15625 C9.31236783 4.80069074 8.1520499 9.69191946 8 14 C3.71 14 -0.58 14 -5 14 C-5.33 12.68 -5.66 11.36 -6 10 C-4.33333333 10 -2.66666667 10 -1 10 C0.80411967 7.24075815 1.0127245 6.11027897 0.625 2.75 C0.41875 1.8425 0.2125 0.935 0 0 Z " fill="#51A4E1" transform="translate(28,22)"/>
<path d="M0 0 C-0.20625 0.9075 -0.4125 1.815 -0.625 2.75 C-1.0127245 6.11027897 -0.80411967 7.24075815 1 10 C2.32 9.67 3.64 9.34 5 9 C5.33 9.99 5.66 10.98 6 12 C5.67 12.66 5.34 13.32 5 14 C0.71 14 -3.58 14 -8 14 C-8.37030271 3.50808977 -8.37030271 3.50808977 -6.65625 1.15625 C-4.39016195 -0.425736 -2.6974415 -0.21871147 0 0 Z " fill="#52A4E1" transform="translate(8,22)"/>
<path d="M0 0 C2.64 0 5.28 0 8 0 C8 0.99 8 1.98 8 3 C7.34 3 6.68 3 6 3 C5.67 10.26 5.34 17.52 5 25 C4.34 25 3.68 25 3 25 C2.67 17.74 2.34 10.48 2 3 C1.01 3 0.02 3 -1 3 C-0.67 2.01 -0.34 1.02 0 0 Z " fill="#F9CB55" transform="translate(14,0)"/>
</svg>
