<?xml version="1.0" encoding="UTF-8"?>
<svg version="1.1" xmlns="http://www.w3.org/2000/svg" width="36" height="36">
<path d="M0 0 C2.67576692 1.00617682 3.7785108 1.54214546 5.046875 4.1640625 C5.69791667 6.44270833 6.34895833 8.72135417 7 11 C7.66 8.03 8.32 5.06 9 2 C10.32 1.67 11.64 1.34 13 1 C13.33 1.33 13.66 1.66 14 2 C13.81454622 5.10351225 13.54726406 8.18518604 13.22851562 11.27734375 C12.86927863 15.48082951 13.25554189 18.19148841 15 22 C14.92533746 26.18110238 14.37113313 28.43731429 12.0625 31.9375 C8.30316235 34.46929883 5.90312597 34.71291049 1.4453125 34.5 C-2.51901319 33.68940305 -4.26937689 31.94067104 -7 29 C-8.44207941 26.11584117 -8.09394887 23.58278472 -8.0625 20.375 C-8.05347656 19.18648437 -8.04445313 17.99796875 -8.03515625 16.7734375 C-8.02355469 15.85820312 -8.01195312 14.94296875 -8 14 C-5.36 13.01 -2.72 12.02 0 11 C-0.08378906 10.28972656 -0.16757813 9.57945313 -0.25390625 8.84765625 C-0.40666016 7.46900391 -0.40666016 7.46900391 -0.5625 6.0625 C-0.66691406 5.14597656 -0.77132813 4.22945313 -0.87890625 3.28515625 C-0.91886719 2.53105469 -0.95882813 1.77695312 -1 1 C-0.67 0.67 -0.34 0.34 0 0 Z " fill="#FEDC5B" transform="translate(15,2)"/>
<path d="M0 0 C3.63 0 7.26 0 11 0 C13.06667955 5.16669888 13.39483861 6.79260251 12 12 C10.0625 14.9375 10.0625 14.9375 7 17 C2.83530702 17.85376206 -1.05042555 17.92389472 -4.9453125 16.078125 C-7.86064196 13.90923255 -8.95165699 12.18301284 -9.875 8.6875 C-9.91625 7.800625 -9.9575 6.91375 -10 6 C-8.58456585 5.80341192 -7.16755969 5.61812454 -5.75 5.4375 C-4.96109375 5.33308594 -4.1721875 5.22867187 -3.359375 5.12109375 C-0.99467126 4.99972651 0.7511037 5.30366743 3 6 C2.01 7.98 1.02 9.96 0 12 C0.66 12 1.32 12 2 12 C2.12375 11.21625 2.2475 10.4325 2.375 9.625 C3 7 3 7 5 5 C3.02 4.34 1.04 3.68 -1 3 C-0.67 2.01 -0.34 1.02 0 0 Z " fill="#FEDB5C" transform="translate(17,19)"/>
<path d="M0 0 C0.1953125 2.05078125 0.390625 4.1015625 0.5859375 6.15234375 C0.72257813 6.76207031 0.85921875 7.37179688 1 8 C1.66 8.33 2.32 8.66 3 9 C2.979375 8.195625 2.95875 7.39125 2.9375 6.5625 C3 4 3 4 4 3 C5.85287502 2.92773498 7.70833878 2.9161878 9.5625 2.9375 C10.57441406 2.94652344 11.58632813 2.95554687 12.62890625 2.96484375 C13.80259766 2.98224609 13.80259766 2.98224609 15 3 C15 3.33 15 3.66 15 4 C11.7 4.33 8.4 4.66 5 5 C5 5.66 5 6.32 5 7 C7.31 7.33 9.62 7.66 12 8 C11.0409375 8.86625 11.0409375 8.86625 10.0625 9.75 C8.01776132 11.98062401 7.41794801 13.07436391 7 16 C6.34 16 5.68 16 5 16 C5.66 14.02 6.32 12.04 7 10 C3.04 10 -0.92 10 -5 10 C-5 7.03 -5 4.06 -5 1 C-1 0 -1 0 0 0 Z " fill="#F1A249" transform="translate(12,15)"/>
<path d="M0 0 C1.32 0 2.64 0 4 0 C4 2.31 4 4.62 4 7 C2.68 7 1.36 7 0 7 C0 4.69 0 2.38 0 0 Z " fill="#FEDB5C" transform="translate(7,16)"/>
</svg>
