<?xml version="1.0" encoding="UTF-8"?>
<svg version="1.1" xmlns="http://www.w3.org/2000/svg" width="36" height="36">
<path d="M0 0 C0.99 0 1.98 0 3 0 C2.34 1.98 1.68 3.96 1 6 C1.99 6.99 2.98 7.98 4 9 C5.98 8.34 7.96 7.68 10 7 C9.625 8.9375 9.625 8.9375 9 11 C8.34 11.33 7.68 11.66 7 12 C7.495 12.969375 7.99 13.93875 8.5 14.9375 C10.31643382 19.30223175 11.13960005 23.34321708 10 28 C7.32846813 32.224015 4.34834564 34.55055145 -0.375 36.125 C-6.96752466 35.89767156 -11.90002357 34.29531396 -16.6875 29.6875 C-18.27819578 28.08476487 -18.27819578 28.08476487 -20 27 C-23.40125706 27.43637654 -23.40125706 27.43637654 -26 29 C-25.625 27.0625 -25.625 27.0625 -25 25 C-24.34 24.67 -23.68 24.34 -23 24 C-23.515625 23.62875 -24.03125 23.2575 -24.5625 22.875 C-26 21 -26 21 -25.625 18.0625 C-25.41875 17.051875 -25.2125 16.04125 -25 15 C-25.185625 14.2575 -25.37125 13.515 -25.5625 12.75 C-25.7790625 11.88375 -25.7790625 11.88375 -26 11 C-25.34 10.34 -24.68 9.68 -24 9 C-23.3574765 6.93125966 -23.3574765 6.93125966 -23 5 C-22.01 5 -21.02 5 -20 5 C-19.67 4.01 -19.34 3.02 -19 2 C-13.62952863 1.03155434 -13.62952863 1.03155434 -11 1 C-9.4375 2.4375 -9.4375 2.4375 -8 4 C-4.37464024 4.2503577 -4.37464024 4.2503577 -1 4 C-0.67 2.68 -0.34 1.36 0 0 Z " fill="#FDD25B" transform="translate(26,0)"/>
<path d="M0 0 C3 0 3 0 4.68359375 1.57421875 C5.26238281 2.27160156 5.84117188 2.96898437 6.4375 3.6875 C7.0459375 4.41324219 7.654375 5.13898437 8.28125 5.88671875 C12.37837838 10.92432432 12.37837838 10.92432432 14 13 C10.25633814 11.56013005 8.0306886 9.12649698 5.3671875 6.2421875 C4.06115997 4.77584591 4.06115997 4.77584591 2 5 C3.40844718 8.21524305 5.10344786 10.32183868 7.625 12.75 C8.57246094 13.67039062 8.57246094 13.67039062 9.5390625 14.609375 C10.02117188 15.06828125 10.50328125 15.5271875 11 16 C10.01 16 9.02 16 8 16 C6.66666667 14.66666667 5.33333333 13.33333333 4 12 C1.92910402 11.35299858 1.92910402 11.35299858 0 11 C2.30266308 13.69460574 4.64378006 16.35214576 7 19 C7.56332031 19.65484375 8.12664063 20.3096875 8.70703125 20.984375 C12.93865232 25.62231097 16.91304245 27.55072439 23 29 C22.67 29.66 22.34 30.32 22 31 C15.9576302 30.38188701 11.89981689 29.28195366 7.25 25.25 C5.14396669 23.35482114 5.14396669 23.35482114 3 22 C-0.51059123 22.33070464 -0.51059123 22.33070464 -3 24 C-2.625 22.0625 -2.625 22.0625 -2 20 C-1.34 19.67 -0.68 19.34 0 19 C-0.515625 18.62875 -1.03125 18.2575 -1.5625 17.875 C-3 16 -3 16 -2.625 13.0625 C-2.41875 12.051875 -2.2125 11.04125 -2 10 C-2.185625 9.2575 -2.37125 8.515 -2.5625 7.75 C-2.706875 7.1725 -2.85125 6.595 -3 6 C-2.34 5.34 -1.68 4.68 -1 4 C-0.3574765 1.93125966 -0.3574765 1.93125966 0 0 Z " fill="#F19544" transform="translate(3,5)"/>
<path d="M0 0 C3 0 3 0 4.68359375 1.57421875 C5.26238281 2.27160156 5.84117188 2.96898437 6.4375 3.6875 C7.0459375 4.41324219 7.654375 5.13898437 8.28125 5.88671875 C12.37837838 10.92432432 12.37837838 10.92432432 14 13 C10.25633814 11.56013005 8.0306886 9.12649698 5.3671875 6.2421875 C4.06115997 4.77584591 4.06115997 4.77584591 2 5 C3.40844718 8.21524305 5.10344786 10.32183868 7.625 12.75 C8.57246094 13.67039062 8.57246094 13.67039062 9.5390625 14.609375 C10.02117188 15.06828125 10.50328125 15.5271875 11 16 C10.01 16 9.02 16 8 16 C7.1028125 15.071875 7.1028125 15.071875 6.1875 14.125 C4.0856126 11.76419391 4.0856126 11.76419391 0.8125 11 C-2 10 -2 10 -3 8 C-3 6 -3 6 -1 4 C-0.3574765 1.93125966 -0.3574765 1.93125966 0 0 Z " fill="#F1A149" transform="translate(3,5)"/>
<path d="M0 0 C1.32 0 2.64 0 4 0 C2.84826645 2.46800047 1.95216435 4.04783565 0 6 C-0.99 6 -1.98 6 -3 6 C-2.42655063 3.13275314 -2.1385485 2.1385485 0 0 Z " fill="#FC7039" transform="translate(32,1)"/>
<path d="M0 0 C0.99 0 1.98 0 3 0 C2.42655063 2.86724686 2.1385485 3.8614515 0 6 C-2.125 5.625 -2.125 5.625 -4 5 C-2.1875 2.5 -2.1875 2.5 0 0 Z " fill="#FC6F3C" transform="translate(4,29)"/>
<path d="M0 0 C0.99 0 1.98 0 3 0 C2.67 1.65 2.34 3.3 2 5 C1.01 5 0.02 5 -1 5 C-0.67 3.35 -0.34 1.7 0 0 Z " fill="#F9723F" transform="translate(8,31)"/>
</svg>
