<?xml version="1.0" encoding="UTF-8"?>
<svg version="1.1" xmlns="http://www.w3.org/2000/svg" width="36" height="36">
<path d="M0 0 C1.32 0.33 2.64 0.66 4 1 C4 5 4 5 3.6875 8 C3.73515281 11.11856372 3.73515281 11.11856372 5.9375 13.375 C10.05071916 15.55752445 13.43979722 15.35766296 18 15 C18 15.99 18 16.98 18 18 C17.34 18 16.68 18 16 18 C16 18.99 16 19.98 16 21 C15.01 21 14.02 21 13 21 C13 20.01 13 19.02 13 18 C12.34 18.33 11.68 18.66 11 19 C12.39195915 21.7839183 14.15575779 21.97898997 17 23 C17.19551338 24.60320974 17.38111983 26.20762986 17.5625 27.8125 C17.71912109 29.15248047 17.71912109 29.15248047 17.87890625 30.51953125 C18 33 18 33 17 36 C15.35 35.67 13.7 35.34 12 35 C11.67 32.03 11.34 29.06 11 26 C10.29915283 26.30292969 9.59830566 26.60585938 8.8762207 26.91796875 C5.69224053 28.28798918 2.50251927 29.64410439 -0.6875 31 C-1.79029297 31.47695313 -2.89308594 31.95390625 -4.02929688 32.4453125 C-5.09599609 32.89648438 -6.16269531 33.34765625 -7.26171875 33.8125 C-8.24100342 34.23144531 -9.22028809 34.65039062 -10.22924805 35.08203125 C-13.01005659 36.00333182 -15.09512245 36.18546704 -18 36 C-17.52877252 29.0886636 -14.79363994 23.27795839 -12 17 C-12.66 16.67 -13.32 16.34 -14 16 C-13.67 12.37 -13.34 8.74 -13 5 C-13.33 5.66 -13.66 6.32 -14 7 C-14.66 7 -15.32 7 -16 7 C-16 5.02 -16 3.04 -16 1 C-14.02 1 -12.04 1 -10 1 C-9.67 3.97 -9.34 6.94 -9 10 C-8.54625 9.34 -8.0925 8.68 -7.625 8 C-7.08875 7.34 -6.5525 6.68 -6 6 C-5.34 6 -4.68 6 -4 6 C-3.34 5.01 -2.68 4.02 -2 3 C-1.34 3 -0.68 3 0 3 C0 2.01 0 1.02 0 0 Z " fill="#A40923" transform="translate(18,0)"/>
<path d="M0 0 C4 3 8 6 12 9 C8.27743701 10.68170573 4.54597168 12.34267004 0.8125 14 C-0.77014648 14.71542969 -0.77014648 14.71542969 -2.38476562 15.4453125 C-3.40634766 15.89648438 -4.42792969 16.34765625 -5.48046875 16.8125 C-6.41785889 17.23144531 -7.35524902 17.65039062 -8.32104492 18.08203125 C-11.06613576 19.02266203 -13.12234491 19.18256337 -16 19 C-15.28328125 18.30261719 -14.5665625 17.60523437 -13.828125 16.88671875 C-10.95059668 14.00817579 -8.3399779 10.94916485 -5.75 7.8125 C-5.30398438 7.27947266 -4.85796875 6.74644531 -4.3984375 6.19726562 C-1.95191899 3.26588274 -1.95191899 3.26588274 0 0 Z " fill="#DD2D43" transform="translate(16,17)"/>
<path d="M0 0 C0.66 0 1.32 0 2 0 C4 3 4 3 3.78857422 4.95800781 C2.33133549 8.73148915 -0.35551975 11.62867669 -2.875 14.75 C-3.41769531 15.44738281 -3.96039063 16.14476563 -4.51953125 16.86328125 C-5.04675781 17.52199219 -5.57398438 18.18070313 -6.1171875 18.859375 C-6.59784668 19.46233398 -7.07850586 20.06529297 -7.57373047 20.68652344 C-9 22 -9 22 -12 22 C-11.67 20.02 -11.34 18.04 -11 16 C-10.34 16 -9.68 16 -9 16 C-8.7421875 15.29488281 -8.484375 14.58976562 -8.21875 13.86328125 C-6.89669814 10.75730685 -5.30252146 8.04021935 -3.5 5.1875 C-2.58734375 3.72376953 -2.58734375 3.72376953 -1.65625 2.23046875 C-1.1096875 1.49441406 -0.563125 0.75835937 0 0 Z " fill="#EA6267" transform="translate(12,13)"/>
<path d="M0 0 C1.65 0.33 3.3 0.66 5 1 C5.19551338 2.60320974 5.38111983 4.20762986 5.5625 5.8125 C5.66691406 6.70582031 5.77132812 7.59914063 5.87890625 8.51953125 C6 11 6 11 5 14 C3.35 13.67 1.7 13.34 0 13 C-0.19466332 11.20909747 -0.38051213 9.41723495 -0.5625 7.625 C-0.66691406 6.62726562 -0.77132813 5.62953125 -0.87890625 4.6015625 C-1 2 -1 2 0 0 Z " fill="#75B254" transform="translate(30,22)"/>
<path d="M0 0 C1.32 0.33 2.64 0.66 4 1 C4 2.32 4 3.64 4 5 C4.061875 5.86625 4.12375 6.7325 4.1875 7.625 C4.125625 8.40875 4.06375 9.1925 4 10 C3.01 10.66 2.02 11.32 1 12 C1 12.66 1 13.32 1 14 C-0.32 13.67 -1.64 13.34 -3 13 C-2.814375 12.2575 -2.62875 11.515 -2.4375 10.75 C-2.00796892 8.05009037 -2.14877026 6.55368923 -3 4 C-2.01 3.67 -1.02 3.34 0 3 C0 2.01 0 1.02 0 0 Z " fill="#A986CF" transform="translate(18,0)"/>
<path d="M0 0 C1.98 0 3.96 0 6 0 C6.91457003 5.56157448 7.32086397 9.675665 5 15 C4.01 15 3.02 15 2 15 C2.33 11.37 2.66 7.74 3 4 C2.67 4.66 2.34 5.32 2 6 C1.34 6 0.68 6 0 6 C0 4.02 0 2.04 0 0 Z " fill="#73B254" transform="translate(2,1)"/>
<path d="M0 0 C0.33 0 0.66 0 1 0 C1.96195333 2.94627251 2.39134943 5.08677684 1.14501953 7.99511719 C-0.14441906 10.17834219 -1.51055853 12.27912049 -2.9375 14.375 C-3.41896484 15.11105469 -3.90042969 15.84710938 -4.39648438 16.60546875 C-5.5824217 18.41372962 -6.78920951 20.20828543 -8 22 C-9.16648805 18.50053586 -8.8515443 18.02342776 -7.3828125 14.8046875 C-7.02316406 14.00675781 -6.66351563 13.20882813 -6.29296875 12.38671875 C-5.90753906 11.55785156 -5.52210937 10.72898437 -5.125 9.875 C-4.55845703 8.62009766 -4.55845703 8.62009766 -3.98046875 7.33984375 C-1.17099144 1.17099144 -1.17099144 1.17099144 0 0 Z " fill="#DB2E44" transform="translate(11,7)"/>
<path d="M0 0 C1.65 0 3.3 0 5 0 C3.50897439 4.60862461 1.30545582 7.53330244 -2 11 C-2.99 11 -3.98 11 -5 11 C-4.67 9.02 -4.34 7.04 -4 5 C-3.34 5 -2.68 5 -2 5 C-1.34 3.35 -0.68 1.7 0 0 Z " fill="#E85368" transform="translate(5,24)"/>
<path d="M0 0 C0 0.99 0 1.98 0 3 C-0.66 3 -1.32 3 -2 3 C-2 3.99 -2 4.98 -2 6 C-2.99 6 -3.98 6 -5 6 C-5 5.01 -5 4.02 -5 3 C-7.97 3.66 -10.94 4.32 -14 5 C-14 4.34 -14 3.68 -14 3 C-9.62850344 -0.66641647 -5.39741292 -0.31749488 0 0 Z " fill="#998BB6" transform="translate(36,15)"/>
<path d="M0 0 C1.32 0 2.64 0 4 0 C4 1.32 4 2.64 4 4 C2.68 4 1.36 4 0 4 C0 2.68 0 1.36 0 0 Z " fill="#9265CB" transform="translate(0,16)"/>
<path d="M0 0 C1.32 0 2.64 0 4 0 C4 1.32 4 2.64 4 4 C2.68 4 1.36 4 0 4 C0 2.68 0 1.36 0 0 Z " fill="#FFCB4D" transform="translate(26,2)"/>
<path d="M0 0 C0.99 0 1.98 0 3 0 C3 0.99 3 1.98 3 3 C2.01 3 1.02 3 0 3 C0 2.01 0 1.02 0 0 Z " fill="#5C913B" transform="translate(22,30)"/>
<path d="M0 0 C0.99 0 1.98 0 3 0 C3 0.99 3 1.98 3 3 C2.01 3 1.02 3 0 3 C0 2.01 0 1.02 0 0 Z " fill="#FFCB4C" transform="translate(28,11)"/>
<path d="M0 0 C0.99 0 1.98 0 3 0 C3 0.99 3 1.98 3 3 C2.01 3 1.02 3 0 3 C0 2.01 0 1.02 0 0 Z " fill="#5C913B" transform="translate(24,8)"/>
<path d="M0 0 C0.99 0 1.98 0 3 0 C3 0.99 3 1.98 3 3 C2.01 3 1.02 3 0 3 C0 2.01 0 1.02 0 0 Z " fill="#FFCB4C" transform="translate(31,7)"/>
</svg>
