<?xml version="1.0" encoding="UTF-8"?>
<svg version="1.1" xmlns="http://www.w3.org/2000/svg" width="36" height="36">
<path d="M0 0 C1.21816406 0.00773438 1.21816406 0.00773438 2.4609375 0.015625 C4.5625 0.125 4.5625 0.125 8 1 C12.65908018 7.612888 12.74661678 16.18126317 12 24 C10.39520656 28.90159736 7.25461481 32.16359013 3 35 C-2.35405587 36.78468529 -8.79640194 37.04514547 -14.203125 35.28125 C-19.0435251 32.67164299 -22.26963139 29.19110583 -24 24 C-24.66475679 16.54600582 -24.64433645 11.02508513 -20 5 C-13.74974623 -0.79291812 -8.10969156 -0.20530865 0 0 Z " fill="#FCC94C" transform="translate(24,0)"/>
<path d="M0 0 C7.26 0 14.52 0 22 0 C20.84180791 6.94915254 20.84180791 6.94915254 17 10 C13.34711807 11.21762731 10.84245864 11.39075851 7 11 C3.625 8.875 3.625 8.875 1 6 C0.67 4.02 0.34 2.04 0 0 Z " fill="#745411" transform="translate(7,21)"/>
<path d="M0 0 C1.32 0 2.64 0 4 0 C6.38536438 4.17438766 7.6445541 7.16584428 7 12 C5.8125 13.875 5.8125 13.875 4 15 C1.4375 15.375 1.4375 15.375 -1 15 C-3 12 -3 12 -2.75 8.625 C-2.10626078 5.51359378 -1.30944157 2.88077146 0 0 Z " fill="#61AFE6" transform="translate(28,1)"/>
<path d="M0 0 C4.62 0 9.24 0 14 0 C13.67 0.66 13.34 1.32 13 2 C9.04340734 3.31886422 6.17660573 3.26518132 2 3 C1.34 2.01 0.68 1.02 0 0 Z " fill="#F5F3EF" transform="translate(11,24)"/>
<path d="M0 0 C1.98 0 3.96 0 6 0 C6.33 0.99 6.66 1.98 7 3 C4.36 3 1.72 3 -1 3 C-0.67 2.01 -0.34 1.02 0 0 Z " fill="#7D5A0B" transform="translate(21,15)"/>
<path d="M0 0 C1.98 0 3.96 0 6 0 C6.33 0.99 6.66 1.98 7 3 C4.36 3 1.72 3 -1 3 C-0.67 2.01 -0.34 1.02 0 0 Z " fill="#7D5A0B" transform="translate(9,15)"/>
</svg>
