<?xml version="1.0" encoding="UTF-8"?>
<svg version="1.1" xmlns="http://www.w3.org/2000/svg" width="36" height="36">
<path d="M0 0 C3.84024912 0.54860702 5.60712114 1.97948078 8 5 C8.609375 8.453125 8.609375 8.453125 8.75 12.25 C8.80671875 13.51328125 8.8634375 14.7765625 8.921875 16.078125 C8.94765625 17.04234375 8.9734375 18.0065625 9 19 C10.99786055 18.1470525 10.99786055 18.1470525 13 17 C13.80528889 14.94999129 13.80528889 14.94999129 14 13 C14.66 13 15.32 13 16 13 C16.62367661 23.70644851 16.62367661 23.70644851 14.3125 28.5 C7.59412173 35.76311164 7.59412173 35.76311164 2.390625 36.23828125 C-8.14881343 36.48734758 -8.14881343 36.48734758 -13 32 C-16.93675241 27.53125402 -18.16233427 25.11224219 -18.25 19.1875 C-18.27578125 18.14980469 -18.3015625 17.11210937 -18.328125 16.04296875 C-17.96101749 12.63848364 -16.9499248 10.77607715 -15 8 C-14.34 8.33 -13.68 8.66 -13 9 C-13 10.65 -13 12.3 -13 14 C-12.01 14.33 -11.02 14.66 -10 15 C-9.96261719 14.22914062 -9.92523438 13.45828125 -9.88671875 12.6640625 C-9.82097656 11.66117188 -9.75523438 10.65828125 -9.6875 9.625 C-9.62949219 8.62726562 -9.57148438 7.62953125 -9.51171875 6.6015625 C-9.34285156 5.74304688 -9.17398437 4.88453125 -9 4 C-8.01 3.34 -7.02 2.68 -6 2 C-5.01 3.98 -4.02 5.96 -3 8 C-2.01 7.67 -1.02 7.34 0 7 C1.04449911 3.86650268 0.93423645 3.01031744 0 0 Z " fill="#F4910C" transform="translate(19,0)"/>
<path d="M0 0 C3.16115776 1.36983503 3.9927092 1.9890638 6 5 C6.38499891 6.65549531 6.72793135 8.3222433 7 10 C7.99 10 8.98 10 10 10 C10.66 9.34 11.32 8.68 12 8 C13 9 13 9 13.4375 11.8125 C13 15 13 15 10.75 17.375 C5.9355502 20.10318822 0.32420199 19.712803 -5 19 C-7.92823235 18.03476786 -8.80228879 17.31980627 -11 15 C-11.625 12 -11.625 12 -11 9 C-9 6.625 -9 6.625 -7 5 C-7 5.99 -7 6.98 -7 8 C-5.02 7.34 -3.04 6.68 -1 6 C-0.67 4.02 -0.34 2.04 0 0 Z " fill="#FEC849" transform="translate(17,17)"/>
</svg>
