<?xml version="1.0" encoding="UTF-8"?>
<svg version="1.1" xmlns="http://www.w3.org/2000/svg" width="36" height="36">
<path d="M0 0 C4.8404001 2.60960701 8.06650639 6.09014417 9.796875 11.28125 C11.42362372 26.21357554 11.42362372 26.21357554 7.89453125 30.69921875 C0.8987973 35.29123212 -5.98236032 36.04795344 -14.203125 35.28125 C-19.10503597 33.682045 -22.36803972 30.53387792 -25.203125 26.28125 C-26.98781029 20.92719413 -27.24827047 14.48484806 -25.484375 9.078125 C-20.32154602 -0.49809004 -10.1118782 -3.29891062 0 0 Z " fill="#FDCA4C" transform="translate(26.203125,0.71875)"/>
<path d="M0 0 C3.57416264 0.49641148 6.69252492 1.58251068 10 3 C10.1875 5.375 10.1875 5.375 10 8 C6.5647952 10.29013653 5.014669 10.17842973 1 10 C-0.85064319 6.87703962 -1.29356154 4.62059232 -1 1 C-0.67 0.67 -0.34 0.34 0 0 Z " fill="#DE3444" transform="translate(26,21)"/>
<path d="M0 0 C2.64 0.33 5.28 0.66 8 1 C8.99 3.97 9.98 6.94 11 10 C9.68 9.34 8.36 8.68 7 8 C4.35774595 9.31865712 4.35774595 9.31865712 2 11 C1.34 11 0.68 11 0 11 C0 10.34 0 9.68 0 9 C0.99 8.34 1.98 7.68 3 7 C2.01 6.67 1.02 6.34 0 6 C0 5.34 0 4.68 0 4 C0.99 3.34 1.98 2.68 3 2 C2.01 1.34 1.02 0.68 0 0 Z " fill="#BA8624" transform="translate(17,22)"/>
<path d="M0 0 C2.0625 0.4375 2.0625 0.4375 4 1 C4 2.65 4 4.3 4 6 C2.0625 6.5625 2.0625 6.5625 0 7 C-1 6 -1 6 -1.125 3.5 C-1 1 -1 1 0 0 Z " fill="#7B570A" transform="translate(10,12)"/>
<path d="M0 0 C3.36704285 -0.2295711 5.41370268 -0.33943529 8.375 1.375 C8.91125 1.91125 9.4475 2.4475 10 3 C10 3.66 10 4.32 10 5 C6.7 4.01 3.4 3.02 0 2 C0 1.34 0 0.68 0 0 Z " fill="#795609" transform="translate(20,9)"/>
<path d="M0 0 C1.98 0 3.96 0 6 0 C6.33 0.99 6.66 1.98 7 3 C4.36 3 1.72 3 -1 3 C-0.67 2.01 -0.34 1.02 0 0 Z " fill="#7D5A0B" transform="translate(21,15)"/>
<path d="M0 0 C0 0.66 0 1.32 0 2 C-2.9826906 3.52448631 -5.818202 4.93940067 -9 6 C-6.97377245 1.32409027 -5.29661848 0 0 0 Z " fill="#7E5A0C" transform="translate(14,5)"/>
</svg>
