<?xml version="1.0" encoding="UTF-8"?>
<svg version="1.1" xmlns="http://www.w3.org/2000/svg" width="36" height="36">
<path d="M0 0 C4.8404001 2.60960701 8.06650639 6.09014417 9.796875 11.28125 C10.46163179 18.73524418 10.44121145 24.25616487 5.796875 30.28125 C0.39692227 35.28608423 -4.05234248 35.63143872 -11.1875 35.5625 C-16.73027207 35.04555753 -19.78938645 32.80659949 -23.578125 28.71875 C-27.13749657 23.37969265 -26.78151279 17.4828524 -26.203125 11.28125 C-24.60392 6.37933903 -21.45575292 3.11633528 -17.203125 0.28125 C-11.84906913 -1.50343529 -5.40672306 -1.76389547 0 0 Z " fill="#FBC84C" transform="translate(26.203125,0.71875)"/>
<path d="M0 0 C0.66 0.33 1.32 0.66 2 1 C1.6875 3.375 1.6875 3.375 1 6 C-2.8503105 8.56687367 -4.58569763 7.83288724 -9 7 C-9.33 5.68 -9.66 4.36 -10 3 C-9.0925 3.061875 -8.185 3.12375 -7.25 3.1875 C-3.71017358 2.98327924 -2.55068845 2.35448165 0 0 Z " fill="#FEF9EC" transform="translate(30,13)"/>
<path d="M0 0 C0.70125 0.495 1.4025 0.99 2.125 1.5 C5.37119719 3.1936681 7.39340156 3.25162315 11 3 C10.67 4.32 10.34 5.64 10 7 C3.6 8.35384615 3.6 8.35384615 0.5625 6.5625 C0.046875 6.046875 -0.46875 5.53125 -1 5 C-0.67 3.35 -0.34 1.7 0 0 Z " fill="#FEF9EC" transform="translate(5,13)"/>
<path d="M0 0 C5.625 -0.25 5.625 -0.25 9 2 C8.67 3.32 8.34 4.64 8 6 C2.25 7.125 2.25 7.125 0 6 C0 5.34 0 4.68 0 4 C0.99 4 1.98 4 3 4 C3 3.34 3 2.68 3 2 C2.01 2 1.02 2 0 2 C0 1.34 0 0.68 0 0 Z " fill="#6E4E1F" transform="translate(20,8)"/>
<path d="M0 0 C1.98 0 3.96 0 6 0 C6 1.98 6 3.96 6 6 C0.25 7.125 0.25 7.125 -2 6 C-2 4 -2 4 0 2 C0 1.34 0 0.68 0 0 Z " fill="#6B4C1E" transform="translate(10,8)"/>
<path d="M0 0 C0.99 0.33 1.98 0.66 3 1 C2.67 1.66 2.34 2.32 2 3 C1.34 3 0.68 3 0 3 C0 3.66 0 4.32 0 5 C2.64 5 5.28 5 8 5 C8.33 3.68 8.66 2.36 9 1 C9.125 3.375 9.125 3.375 9 6 C8.34 6.66 7.68 7.32 7 8 C0.53846154 7.53846154 0.53846154 7.53846154 -2 5 C-1.46428571 1.46428571 -1.46428571 1.46428571 0 0 Z " fill="#DA9937" transform="translate(8,9)"/>
<path d="M0 0 C1.32 0 2.64 0 4 0 C4 0.66 4 1.32 4 2 C3.01 2 2.02 2 1 2 C1 2.66 1 3.32 1 4 C3.64 4 6.28 4 9 4 C9.33 3.01 9.66 2.02 10 1 C10.33 1.99 10.66 2.98 11 4 C8.73262056 6.01544839 7.42714016 6.94914998 4.375 7.3125 C2 7 2 7 0 5 C-0.125 2.375 -0.125 2.375 0 0 Z " fill="#E09D39" transform="translate(19,10)"/>
</svg>
