<?xml version="1.0" encoding="UTF-8"?>
<svg version="1.1" xmlns="http://www.w3.org/2000/svg" width="36" height="36">
<path d="M0 0 C2.30078125 -0.2890625 2.30078125 -0.2890625 5 0 C10.19991101 5.93940174 13.54371074 14.00386638 13.31640625 21.9140625 C12.56604936 26.8608598 10.07487256 30.6564093 7 34.5 C2.15120272 36.92439864 -2.69373593 36.73493962 -8 36 C-11.57557806 33.99767629 -13.72990507 31.92574796 -15 28 C-15.65633049 22.09302563 -13.5901265 18.18025299 -11 13 C-9.00390625 12.11328125 -9.00390625 12.11328125 -6.5625 11.3125 C-5.75941406 11.04050781 -4.95632813 10.76851562 -4.12890625 10.48828125 C-2 10 -2 10 0 11 C-0.33 10.443125 -0.66 9.88625 -1 9.3125 C-2.1309601 6.69715478 -2.15662974 4.8193354 -2 2 C-1.34 2 -0.68 2 0 2 C0 1.34 0 0.68 0 0 Z M-7.625 19.5 C-8.40875 20.325 -9.1925 21.15 -10 22 C-9.45160938 24.98220128 -9.45160938 24.98220128 -8 28 C-4.98220128 29.45160938 -4.98220128 29.45160938 -2 30 C1.21634288 26.71610604 1.21634288 26.71610604 2 22.375 C0.80544573 19.53793362 -0.35345953 18.52376572 -3 17 C-5.36278736 16.77011494 -5.36278736 16.77011494 -7.625 19.5 Z " fill="#FEDC5C" transform="translate(19,0)"/>
<path d="M0 0 C0.66 0 1.32 0 2 0 C3.17154293 2.28929053 4.33738074 4.58118362 5.5 6.875 C5.83386719 7.52597656 6.16773438 8.17695313 6.51171875 8.84765625 C9 13.7734375 9 13.7734375 9 16 C8.34 16 7.68 16 7 16 C7 15.34 7 14.68 7 14 C6.34 14 5.68 14 5 14 C4.1533966 12.61217515 3.32324661 11.21430603 2.5 9.8125 C2.0359375 9.03519531 1.571875 8.25789062 1.09375 7.45703125 C-0.10729647 4.75896614 -0.20741043 2.9193018 0 0 Z " fill="#F09B46" transform="translate(17,2)"/>
</svg>
